<svg width="12" height="12" viewBox="0 0 12 12" fill="none" xmlns="http://www.w3.org/2000/svg">
<path d="M3.89189 6.75H2.91892C2.73973 6.75 2.59459 6.91781 2.59459 7.125V11.625C2.59459 11.8322 2.73973 12 2.91892 12H3.89189C4.07108 12 4.21622 11.8322 4.21622 11.625V7.125C4.21622 6.91781 4.07108 6.75 3.89189 6.75ZM1.2973 9H0.324324C0.145135 9 0 9.16781 0 9.375V11.625C0 11.8322 0.145135 12 0.324324 12H1.2973C1.47649 12 1.62162 11.8322 1.62162 11.625V9.375C1.62162 9.16781 1.47649 9 1.2973 9ZM6.48649 4.5H5.51351C5.33432 4.5 5.18919 4.66781 5.18919 4.875V11.625C5.18919 11.8322 5.33432 12 5.51351 12H6.48649C6.66568 12 6.81081 11.8322 6.81081 11.625V4.875C6.81081 4.66781 6.66568 4.5 6.48649 4.5ZM9.08108 2.25H8.10811C7.92892 2.25 7.78378 2.41781 7.78378 2.625V11.625C7.78378 11.8322 7.92892 12 8.10811 12H9.08108C9.26027 12 9.40541 11.8322 9.40541 11.625V2.625C9.40541 2.41781 9.26027 2.25 9.08108 2.25ZM11.6757 0H10.7027C10.5235 0 10.3784 0.167812 10.3784 0.375V11.625C10.3784 11.8322 10.5235 12 10.7027 12H11.6757C11.8549 12 12 11.8322 12 11.625V0.375C12 0.167812 11.8549 0 11.6757 0Z" fill="black"/>
</svg>
